<?xml version="1.0" encoding="utf-8"?>
<!-- Generator: Adobe Illustrator 25.4.1, SVG Export Plug-In . SVG Version: 6.00 Build 0)  -->
<svg version="1.1" id="Layer_1" xmlns="http://www.w3.org/2000/svg" xmlns:xlink="http://www.w3.org/1999/xlink" x="0px" y="0px"
	 viewBox="0 0 1280 1024" style="enable-background:new 0 0 1280 1024;" xml:space="preserve">
<style type="text/css">
	.st0{fill:none;}
	.st1{fill:#FF4A4A;}
	.st2{fill:#FF7171;}
	.st3{fill:#FF0000;}
	.st4{fill:#FF8D8D;}
	.st5{fill:#FC8181;}
	.st6{fill:#E80000;}
</style>
<g>
	<line class="st0" x1="592" y1="1024" x2="575" y2="1024"/>
	<rect class="st1" width="1280" height="1024"/>
	<path class="st2" d="M1280,338.28V1024H236c86.91-129.92,178.8-188,247-217c179.81-76.47,327.62-7.26,409.94-109.06
		C944.02,634.79,907.46,583,948,505C983.04,437.59,1067.5,366.3,1280,338.28z"/>
	<path class="st3" d="M705,240c-72.2,72.44-183.21-20.07-293,42c-132.57,74.95-65.88,263.63-226,388c-22.6,17.56-96.05,69.81-185,70
		H0V0h722.32c3.32,9.31,6.22,18.65,8.68,28C735.65,45.68,769.67,175.12,705,240z"/>
	<path class="st4" d="M1280,921.51V1024h-96.54c2.97-0.79,30.94-8.54,34.54-27c4-20.46-24.77-39.54-33-45
		c-36.85-24.44-59.95-8.1-82-30c-18.91-18.78-5.24-34.1-27-58c-20.52-22.54-42.82-20.06-48-39c-3.72-13.63,4.19-28.22,12-36
		c21.94-21.85,69.34-16.18,89,7c20.52,24.2-4.87,49,15,77c14.37,20.25,44.74,27.5,105.5,42
		C1262.42,918.09,1273.1,920.21,1280,921.51z"/>
	<path class="st5" d="M769.22,1024H433.78c46.01-8.73,78.36-25.94,97.22-38c13.91-8.89,29.64-19.15,44-38
		c18.14-23.81,14.95-36.18,26.5-56c21.7-37.22,72.23-60.91,118.5-57c30.3,2.56,77.45,18.54,81,45c5.12,38.22-85.17,65.08-80,104
		C723.66,1004.01,750.17,1016.85,769.22,1024z"/>
	<path class="st6" d="M180,219c-16.63,21.59-48.17,30.44-77.96,21c-6.25-4.26-17.61-10.76-33.04-13c-23.08-3.35-50.62,3.5-67,22
		c-0.7,0.79-1.37,1.59-2,2.39V0h305c-90.58,10.59-152.2,46.44-155,85c-0.56,7.78,1.03,18.91,11,33
		C195.72,144.01,201.68,190.85,180,219z"/>
	<path class="st6" d="M152,509.5c0,8.98-3.64,17.1-9.52,22.98s-14,9.52-22.98,9.52c-19.46-0.06-45.78,3.25-65.5,21
		c-33.47,30.13-19.68,76.4-40,89c-3.57,2.21-8.14,3.35-14,2.9V523.72c28.59,3.09,43.76-2.27,51-11.72c8.58-11.2,10.02-33.4,28-41
		c13.42-5.67,28.85-0.16,40.5,6c2.16,0,13.68,0.22,22.98,9.52C148.36,492.4,152,500.53,152,509.5z"/>
</g>
</svg>
