<?xml version="1.0" encoding="utf-8"?>
<!-- Generator: Adobe Illustrator 25.4.1, SVG Export Plug-In . SVG Version: 6.00 Build 0)  -->
<svg version="1.1" id="Layer_1" xmlns="http://www.w3.org/2000/svg" xmlns:xlink="http://www.w3.org/1999/xlink" x="0px" y="0px"
	 viewBox="0 0 1280 1024" style="enable-background:new 0 0 1280 1024;" xml:space="preserve">
<style type="text/css">
	.st0{opacity:0.4;fill:#FF8A8A;}
	.st1{opacity:0.14;fill:#FF8A8A;}
	.st2{opacity:0.25;fill:#F6BCBC;}
	.st3{opacity:0.32;fill:#FF8A8A;}
	.st4{opacity:0.46;fill:#FF8A8A;}
</style>
<path class="st0" d="M0,613.7c0,0,158.5,49.8,189.5,213.8S423.52,1024,423.52,1024H0V613.7z"/>
<path class="st1" d="M2,558.7c0,0,166.73,56.48,199.34,242.46S447.52,1024,447.52,1024H2V558.7z"/>
<path class="st2" d="M870.71,0c0,0-100.71,187,48.29,315s118.44,233.39,42.72,298.7S1077,776.79,1280,656.39C1280,463,1280,0,1280,0
	H870.71z"/>
<path class="st2" d="M850.36,0c0,0-105.71,196.44,50.69,330.9s124.33,245.17,44.84,313.77s121.01,171.32,334.1,44.85
	C1280,486.36,1280,0,1280,0H850.36z"/>
<path class="st3" d="M290.36,0c-24.17,25.13-56.25,44.51-88.35,52.25C129.63,69.71,69.37,20.22,36.03,53.1
	C11.05,77.74,35.33,114.12,7,142.93c-2.16,2.19-4.5,4.22-7,6.08V4.02c5.18,0.97,10.42,0.99,15.8-0.3C19.19,2.9,22.28,1.65,25.09,0
	H290.36z"/>
<path class="st3" d="M307.36,0c-25.59,32.04-59.54,56.76-93.52,66.63c-76.62,22.26-140.41-40.84-175.7,1.08
	C11.7,99.13,37.4,145.52,7.41,182.26c-2.29,2.79-4.76,5.38-7.41,7.75V5.13c5.48,1.24,11.03,1.26,16.73-0.38
	C20.31,3.7,23.58,2.1,26.56,0H307.36z"/>
<path class="st4" d="M1280,1024h-273.46c27.65-40.94,84.42-71.65,134.69-74.85c61.87-3.93,103.83,37.77,138.77,31.11V1024z"/>
<path class="st4" d="M1280,927.48v74.05c-3.22-0.76-6.59-1.08-10.15-0.86c-14.03,0.89-24.64,9.83-33.64,23.33H963.02
	c19.39-51.53,87.28-93.1,146.21-96.85c70.35-4.47,114.97,50.07,152.78,25.41C1272.04,946.02,1276.72,937.16,1280,927.48z"/>
</svg>
